<?xml version="1.0" encoding="UTF-8"?>
<!-- Generator: Adobe Illustrator 24.0.3, SVG Export Plug-In . SVG Version: 6.00 Build 0)  -->
<svg version="1.1" id="Layer_1" xmlns="http://www.w3.org/2000/svg" x="0px" y="0px" viewBox="0 0 36.6 50"
	 style="enable-background:new 0 0 36.6 50;" xml:space="preserve">
<style type="text/css">
	.st0{fill:#F1615F;}
</style>
	<g>
	<path class="st0"
		  d="M31.5,1.1c-3.5-0.7-4.3,2.7-3.6,4.7c0.1,0.3,0.2,0.6,0.3,0.8l0,0c0.1,0.2,0.2,0.5,0.2,0.8V9l-0.2,0.3   c0,0-0.4,0.5-0.7,1.6c0.8,0,1.3-0.8,1.9-0.7c0.9,0.1,1,0.1,1.1,1.6c0.1,1.2-2.2,5.3-3.4,7.5c0,2.5-0.1,4.7-0.1,4.7   c0,0.1-0.1,1.6-0.7,3.3c0.4,0.2,0.5,0.4,0.5,0.4c1.1-0.9,1-2.4,0.7-3.5s0.7-3.2,2.9-6.8s3.8-8.1,4.1-9.3C34.7,7,35,1.8,31.5,1.1z    M31.9,5.8c0,0-0.6,0.4-0.6,1.2s0.3,1.9,0.3,1.9s-0.8,0.1-1-0.7s0.3-1.7-0.4-2.2c0,0-1.1-1-0.3-2.5S32.2,4.2,31.9,5.8z"/>
		<path class="st0"
			  d="M9.7,24.1c0,0-0.1-2-0.1-4.4c-1.2-2-3.7-6.6-3.6-7.8c0.1-1.5,0.2-1.5,1.1-1.6c0.6-0.1,1.2,0.8,2,0.6   C8.8,9.8,8.4,9.3,8.4,9.3L8.2,9V8.2V8.1c0,0-0.3-0.3,0.3-2.3c0.7-2-0.1-5.5-3.6-4.7C1.4,1.8,1.7,7,2.1,8.2c0.3,1.2,1.9,5.7,4.1,9.3   s3.2,5.7,2.9,6.8c-0.3,1.1-0.4,2.6,0.7,3.5c0,0,0.1-0.3,0.6-0.5C9.8,25.6,9.7,24.2,9.7,24.1z M5.8,8.2c-0.2,0.8-1,0.7-1,0.7   S5.1,7.8,5.1,7S4.5,5.8,4.5,5.8C4.2,4.2,5.7,2,6.5,3.5C7.2,5,6.2,6,6.2,6C5.5,6.5,6,7.4,5.8,8.2z"/>
		<path class="st0"
			  d="M26,14.2c0-2.2,0.4-3.7,0.8-4.6H9.7c0.4,0.9,0.8,2.4,0.8,4.6c0,3.9,0.2,9.8,0.2,9.8s0.4,5.7,4.3,7.3   c0.4,0.1,1,0.3,1.3,0.3h3.9c0.4,0,1-0.1,1.3-0.3c3.9-1.6,4.3-7.3,4.3-7.3S26,18.1,26,14.2z"/>
		<path class="st0"
			  d="M12.7,38.5c0,0-0.7,0.2-1,1.1H25c-0.3-0.9-1-1.1-1-1.1c-0.3-1.7-1.8-2-1.8-2L20,33.6c0.7-0.3,1-0.7,1-1.1   c-0.2,0-0.5,0.1-0.6,0.1h-3.9c-0.2,0-0.4,0-0.6-0.1c0,0.4,0.3,0.8,1,1.1l-2.2,2.9C14.5,36.5,12.9,36.8,12.7,38.5z"/>
		<path class="st0"
			  d="M27.4,8.7V7.4C27.4,7.2,27.2,7,27,7h-8.7H9.6C9.4,7,9.2,7.2,9.2,7.4v1.2h9.1L27.4,8.7L27.4,8.7z"/>
		<path class="st0"
			  d="M25.5,40.6H11.1c-0.5,0-1,0.4-1,1V48c0,0.3,0.1,0.5,0.3,0.7c0.2,0.2,0.4,0.3,0.7,0.3h14.4c0.5,0,1-0.4,1-1   v-6.5C26.5,41,26.1,40.6,25.5,40.6z M24.4,46.9H12.2v-4.2h12.2V46.9z"/>
</g>
</svg>